<?xml version="1.0" standalone="no"?><!DOCTYPE svg PUBLIC "-//W3C//DTD SVG 1.1//EN" "http://www.w3.org/Graphics/SVG/1.1/DTD/svg11.dtd"><svg t="1706234936842" class="icon" viewBox="0 0 1024 1024" version="1.1" xmlns="http://www.w3.org/2000/svg" p-id="5270" xmlns:xlink="http://www.w3.org/1999/xlink" width="200" height="200"><path d="M176 417.12a10.24 10.24 0 0 0 9.76 8h93.44l3.2 34.4 5.6 57.44a138.4 138.4 0 0 0 137.6 125.12h67.04v197.28H384a9.28 9.28 0 0 0-9.44 9.44v32a9.28 9.28 0 0 0 9.44 9.44h256a9.28 9.28 0 0 0 9.44-9.44v-32a9.28 9.28 0 0 0-9.44-9.44H528V642.08h69.92A138.08 138.08 0 0 0 736 517.12l8.64-92h93.44a10.08 10.08 0 0 0 9.76-8l42.24-201.6a26.4 26.4 0 0 0-26.08-24.8h-90.4l-3.52-33.92a26.08 26.08 0 0 0-25.92-23.2h-464a26.24 26.24 0 0 0-26.4 23.2l-3.52 33.92H160a26.08 26.08 0 0 0-25.92 23.2z m40.16-264.32a64 64 0 0 1 64-57.12h464a64 64 0 0 1 64 57.12H864a64 64 0 0 1 64 58.88V224l-42.24 201.6a48 48 0 0 1-46.88 38.24h-59.52l-5.44 57.6a176 176 0 0 1-176 160h-32v121.44H640a48 48 0 0 1 48 48v32a48 48 0 0 1-48 48H384a48 48 0 0 1-48-48v-32a48 48 0 0 1 48-48h70.4V680h-29.12a176 176 0 0 1-176-160l-5.44-57.6h-58.08a48 48 0 0 1-47.04-38.24L96 215.52v-6.08a64 64 0 0 1 64-56.64zM560 346.88a38.08 38.08 0 0 1-28.64-20.64L512 288l-18.72 37.92A37.76 37.76 0 0 1 464 346.88l-41.6 6.08 30.24 29.6A37.76 37.76 0 0 1 464 416l-7.2 41.6 37.28-19.52a38.4 38.4 0 0 1 35.36 0l37.28 19.52L560 416a38.08 38.08 0 0 1 11.04-33.6l30.24-29.6-41.28-5.92z m12.48 138.56zM634.24 320a24 24 0 0 1 13.28 40.96l-50.4 48.64 12 69.44a23.68 23.68 0 0 1-9.6 23.52 23.36 23.36 0 0 1-25.28 1.76l-62.24-32-62.4 32a23.68 23.68 0 0 1-25.28-1.76 24 24 0 0 1-9.44-23.52l11.84-69.44-50.4-49.12a24 24 0 0 1-6.08-24.48 23.52 23.52 0 0 1 19.36-16l69.6-10.08 31.2-63.04a24 24 0 0 1 43.04 0l31.2 63.04zM212.16 187.2l37.76-4.48 29.12 243.04-37.6 4.48z m598.72 0L782.4 429.6l-37.6-4.48 28.48-242.56zM492.48 680v-37.92h36.32V680z m0 160v-38.56h36.32v37.92z" fill="#28D900" p-id="5271"></path><path d="M560 346.88a38.08 38.08 0 0 1-28.64-20.64L512 288l-18.72 37.92A37.76 37.76 0 0 1 464 346.88l-41.6 6.08 30.24 29.6A37.76 37.76 0 0 1 464 416l-7.2 41.6 37.28-19.52a38.4 38.4 0 0 1 35.36 0l37.28 19.52L560 416a38.08 38.08 0 0 1 11.04-33.6l30.24-29.6-41.28-5.92z" fill="#28D900" opacity=".15" p-id="5272"></path></svg>